<svg xmlns="http://www.w3.org/2000/svg" width="14" height="14" viewBox="0 0 14 14">
  <g id="Group_3741" data-name="Group 3741" transform="translate(-697 1564)">
    <g id="Group_3724" data-name="Group 3724" transform="translate(111 -2036)">
      <g id="Group_3710" data-name="Group 3710" transform="translate(586 472)">
        <path id="Path_1168" data-name="Path 1168" d="M2466.786,582.5H2455.9a1.555,1.555,0,0,0-1.555,1.556v10.889a1.555,1.555,0,0,0,1.555,1.556h10.889a1.56,1.56,0,0,0,1.556-1.556V584.053A1.56,1.56,0,0,0,2466.786,582.5Zm-7.583,9.57h-1.167V587.4h1.167Zm5.444-.778a.78.78,0,0,1-.778.778h-3.111V587.4h3.111a.78.78,0,0,1,.778.778Z" transform="translate(-2454.342 -582.497)" fill="#bdbdbd"/>
        <rect id="Rectangle_2230" data-name="Rectangle 2230" width="1.556" height="2.333" transform="translate(7.583 6.069)" fill="#bdbdbd"/>
      </g>
    </g>
  </g>
</svg>
