<svg xmlns="http://www.w3.org/2000/svg" width="21.936" height="13.312" viewBox="0 0 21.936 13.312"><path d="M.008-22.656c-4.032,0-7.184,2.592-10.976,6.656,3.248,3.392,6,6.656,10.976,6.656,5.008,0,8.624-4.16,10.96-6.576C8.536-18.816,4.936-22.656.008-22.656Zm0,.832c4.272,0,7.456,3.1,9.84,5.872C7.528-13.52,4.3-10.176.008-10.176c-4.32,0-6.816-2.656-9.824-5.824C-6.328-19.68-3.544-21.824.008-21.824Zm0,9.184A3.36,3.36,0,0,0,3.368-16a3.36,3.36,0,0,0-3.36-3.36A3.349,3.349,0,0,0-3.352-16,3.349,3.349,0,0,0,.008-12.64Zm0-.832A2.513,2.513,0,0,1-2.52-16,2.513,2.513,0,0,1,.008-18.528,2.523,2.523,0,0,1,2.536-16,2.523,2.523,0,0,1,.008-13.472Z" transform="translate(10.968 22.656)" fill="#fff"/></svg>