<svg xmlns="http://www.w3.org/2000/svg" width="18.256" height="18.354" viewBox="0 0 18.256 18.354"><path d="M6.608-15.3A7.86,7.86,0,0,0-1.26-23.184,7.869,7.869,0,0,0-9.128-15.3,7.863,7.863,0,0,0-1.26-7.448a7.836,7.836,0,0,0,5.25-2L8.61-4.83l.518-.518L4.508-9.954A7.756,7.756,0,0,0,6.608-15.3ZM1.526-8.736a7.279,7.279,0,0,1-2.786.56,6.91,6.91,0,0,1-2.772-.56A6.893,6.893,0,0,1-6.3-10.262a7.1,7.1,0,0,1-1.54-2.254A7.279,7.279,0,0,1-8.4-15.3a7.226,7.226,0,0,1,.56-2.786A7.416,7.416,0,0,1-6.314-20.37,7.274,7.274,0,0,1-4.046-21.9a7.026,7.026,0,0,1,2.786-.56,7.349,7.349,0,0,1,2.8.56A7.291,7.291,0,0,1,3.794-20.37a9.119,9.119,0,0,1,.882,1.064,8.544,8.544,0,0,1,.658,1.218A7.266,7.266,0,0,1,5.88-15.3a7.076,7.076,0,0,1-.546,2.758,7.116,7.116,0,0,1-1.526,2.268,6.4,6.4,0,0,1-1.064.868A6.431,6.431,0,0,1,1.526-8.736Z" transform="translate(9.128 23.184)" fill="#ffffff"/></svg>