<svg xmlns="http://www.w3.org/2000/svg" width="36.629" height="36.632" viewBox="0 0 36.629 36.632">
  <g id="Group_3664" data-name="Group 3664" transform="translate(-3229.256 -624.778)">
    <path id="Path_1151" data-name="Path 1151" d="M3265.336,647.526a18.31,18.31,0,1,1-13.339-22.2A18.311,18.311,0,0,1,3265.336,647.526Z" fill="#f7931a"/>
    <path id="Path_1152" data-name="Path 1152" d="M3248.851,635.618c.362-2.434-1.491-3.745-4.031-4.62l.825-3.3-2.009-.5-.8,3.218c-.526-.135-1.07-.257-1.609-.379l.809-3.239-2.009-.5-.825,3.3c-.435-.1-.864-.2-1.28-.3v-.008l-2.771-.691-.536,2.144s1.49.341,1.461.362a1.071,1.071,0,0,1,.936,1.171l-.936,3.761a1.262,1.262,0,0,1,.207.067l-.21-.055-1.314,5.269a.731.731,0,0,1-.922.476c.021.03-1.462-.362-1.462-.362l-1,2.3,2.615.653c.489.122.965.248,1.433.366l-.83,3.34,2.01.5.821-3.3c.548.147,1.082.286,1.6.413l-.822,3.289,2.014.5.829-3.332c3.429.649,6,.388,7.09-2.712.871-2.5-.043-3.934-1.85-4.873a3.208,3.208,0,0,0,2.569-2.953Zm-4.592,6.44c-.623,2.493-4.822,1.145-6.187.808l1.1-4.427C3240.541,638.781,3244.908,639.455,3244.259,642.058Zm.619-6.474c-.563,2.27-4.063,1.116-5.2.834l1-4.014C3241.817,632.687,3245.469,633.213,3244.878,635.585Z" transform="translate(6.794 4.866)" fill="#fff"/>
  </g>
</svg>
